<svg width="15" height="16" viewBox="0 0 15 16" fill="none" xmlns="http://www.w3.org/2000/svg">
<path d="M7.44048 6.09524H8.92857V3.80952H11.1607V2.28571H8.92857V0H7.44048V2.28571H5.20833V3.80952H7.44048V6.09524ZM4.46429 12.9524C3.64583 12.9524 2.98363 13.6381 2.98363 14.4762C2.98363 15.3143 3.64583 16 4.46429 16C5.28274 16 5.95238 15.3143 5.95238 14.4762C5.95238 13.6381 5.28274 12.9524 4.46429 12.9524ZM11.9048 12.9524C11.0863 12.9524 10.4241 13.6381 10.4241 14.4762C10.4241 15.3143 11.0863 16 11.9048 16C12.7232 16 13.3929 15.3143 13.3929 14.4762C13.3929 13.6381 12.7232 12.9524 11.9048 12.9524ZM4.59077 10.4762L4.6131 10.3848L5.28274 9.14286H10.8259C11.3839 9.14286 11.875 8.83048 12.128 8.3581L15 3.01714L13.7054 2.28571H13.6979L12.8795 3.80952L10.8259 7.61905H5.60268L5.50595 7.41333L3.83929 3.80952L3.13244 2.28571L2.43304 0.761905H0V2.28571H1.4881L4.16667 8.06857L3.1622 9.93524C3.04315 10.1486 2.97619 10.4 2.97619 10.6667C2.97619 11.5048 3.64583 12.1905 4.46429 12.1905H13.3929V10.6667H4.77679C4.68006 10.6667 4.59077 10.5829 4.59077 10.4762Z" fill="black"/>
</svg>
