<svg width="147" height="99" viewBox="0 0 147 99" fill="none" xmlns="http://www.w3.org/2000/svg">
<g opacity="0.5">
<path d="M118.131 60.7482C125.308 60.7482 130.038 55.6428 130.038 49.5583C130.038 43.7302 125.792 38.2518 118.015 38.2518C111.185 38.2518 106.362 43.2406 106.362 49.4417C106.246 55.7361 111.069 60.7482 118.131 60.7482ZM109.892 49.4417C109.892 45.0357 113.423 41.3523 118.131 41.3523C122.838 41.3523 126.369 45.0357 126.369 49.4417C126.369 53.8478 122.723 57.5311 118.131 57.5311C113.308 57.5311 109.892 53.9643 109.892 49.4417Z" fill="#3C3C3B"/>
<path d="M78.3231 42.1683V38.9511H67.6154V42.1683H71.1462V57.0416H67.6154V60.2587H78.3231V57.0416H74.7923V42.1683H78.3231ZM41.3538 38.9511V42.1683H45V57.0416H41.3538V60.2587H65.2615V53.0085H61.6154V57.0649H48.6692V51.33H54.4385V53.4748H58.0846V45.6185H54.4385V48.1129H48.6692V42.1683H61.6154V46.4577H65.2615V38.9511H41.3538ZM36.0462 54.1974C36.0462 55.9925 34.4077 57.6477 29.3308 57.6477C26.9769 57.6477 21.2077 56.6919 21.2077 54.1974V52.7754H17.4231V60.1421H21.0692V58.8366C22.1308 59.4427 25.3154 60.7482 29.4231 60.7482C33.5308 60.7482 36.6 59.909 37.8923 58.2538C38.8385 57.0649 39.5308 55.7594 39.5308 54.0809C39.5308 51.0969 37.4077 48.8356 34.7077 48.2528C34.2462 48.1362 32.3538 47.9031 31.2923 47.9031C28.2231 48.0197 25.2923 47.7865 23.0538 47.5534C21.6462 47.3203 20.5846 46.5976 20.5846 44.9424C20.5846 44.2197 20.8154 43.5204 21.3 43.1474C22.4769 41.9584 24.8308 41.4922 27.5538 41.6088C30.2538 41.7253 32.1462 42.448 33.6692 43.1474C34.9615 43.7535 35.4462 44.4529 35.4462 45.5252V46.481H39.1154V38.9511H35.4462V40.4898C34.2692 39.7904 31.1077 38.4849 26.9769 38.4849C22.6154 38.4849 20.2615 39.3241 18.8538 40.7462C17.7923 41.702 16.9615 43.3572 16.9615 45.0357C16.9615 47.5301 18.3692 49.3252 20.3769 50.1411C22.6154 50.9803 27.2077 51.0969 29.4462 51.2135C31.5692 51.33 33.4615 51.2135 34.7538 51.9361C35.5615 52.2858 36.0462 53.2416 36.0462 54.1974V54.1974ZM96 60.2587H106.846V57.0416H103.777L96.1154 47.7632L103.408 42.1683H106.477V38.9511H96V42.1683H98.2385L87.7615 50.3742V42.1683H91.2923V38.9511H80.4462V42.1683H83.9769V57.0416H80.4462V60.2587H91.2923V57.0416H87.7615V54.314L93.1846 50.0245L98.9539 57.0416H96V60.2587Z" fill="#3C3C3B"/>
</g>
</svg>
