<svg width="133" height="90" viewBox="0 0 133 90" fill="none" xmlns="http://www.w3.org/2000/svg">
<g opacity="0.5">
<path d="M36.9978 30.5587C36.1229 30.5566 35.1459 30.66 34.0861 30.9337C34.0861 30.9337 28.6518 32.3026 22.6623 37.9796C22.6623 37.9796 19.8063 40.9188 17.7834 44.7034C17.7834 44.7034 15.6811 48.6491 15.3637 51.9507C15.3637 51.9507 15.0464 55.6548 17.109 57.5471C17.109 57.5471 19.489 59.7616 24.6852 59.3187C24.6852 59.3187 27.9378 58.9161 31.4681 56.6614C31.4681 56.6614 33.1737 55.534 34.2844 54.4872C34.2844 54.4872 33.7687 56.3795 34.5224 57.7485C34.5224 57.7485 35.2364 59.0368 36.8627 59.3187C36.8627 59.3187 38.0526 59.5603 39.7583 58.9161C39.7583 58.9161 40.8293 58.4329 41.5432 58.0706C41.5432 58.0706 43.0109 57.2653 44.4389 56.138C44.4389 56.138 44.1612 57.2653 44.7959 58.2316C44.7959 58.2316 45.5495 59.3187 46.9378 59.4395C46.9378 59.4395 50.6664 59.7213 55.8626 53.2391L52.2134 59.1979L55.5453 59.1576L58.4409 54.0846C58.4409 54.0846 61.4555 48.8505 62.0902 48.2063C62.0902 48.2063 63.6372 46.1126 65.9775 45.6295L67.5244 45.7502C67.5244 45.7502 68.1591 46.0723 68.1591 46.7971L67.0088 46.5958C67.0088 46.5958 66.3345 46.6763 65.9775 47.401C65.9775 47.401 65.6601 48.0855 65.8188 48.7699C65.8188 48.7699 66.0171 49.3336 66.5328 49.5349L66.8898 49.6557L68.0401 49.4947C68.0401 49.4947 70.0631 48.7297 72.8397 45.1866L72.205 46.3542L69.8647 50.4207L67.1278 55.3327C67.1278 55.3327 66.3345 56.9432 66.6915 57.9095C66.6915 57.9095 67.0484 58.8355 68.2384 59.0771L70.8167 58.8758C70.8167 58.8758 72.2843 58.4329 73.4743 57.3861L75.18 55.9769C75.18 55.9769 77.2426 54.2054 79.1069 52.1117L78.9879 52.2728C78.9879 52.2728 77.3616 55.2924 77.0839 56.299C77.0839 56.299 76.4493 58.4329 77.9169 59.2784L79.5829 59.4395C79.5829 59.4395 80.9712 59.2382 82.3595 58.2316L84.6205 56.2587C84.6205 56.2587 86.5641 54.4067 87.5954 53.078C87.5954 53.078 87.0797 54.2859 86.9607 55.1717C86.9607 55.1717 86.5641 57.99 89.1424 59.1174L91.562 59.3187C91.562 59.3187 92.514 59.2382 93.9816 58.7148C93.9816 58.7148 97.3929 57.5874 102.192 53.1183C102.192 53.1183 104.612 50.8636 106.318 48.8505L100.289 59.1174H103.263L105.485 55.3327L108.341 50.622C108.341 50.622 109.967 48.0049 112.942 46.3139C112.942 46.3139 114.132 45.5892 115.044 45.4282C115.044 45.4282 115.996 45.2268 116.195 45.71C116.195 45.71 114.846 45.4282 114.529 46.8373C114.529 46.8373 114.211 48.2465 115.322 48.6894C115.322 48.6894 116.155 48.9712 116.829 48.4881C116.829 48.4881 117.424 48.0452 117.623 47.1997C117.623 47.1997 117.781 46.3542 117.385 45.7502C117.385 45.7502 116.909 45.0255 115.798 44.945C115.798 44.945 114.568 44.9047 112.109 46.5555C112.109 46.5555 110.284 47.7634 109.531 48.5284L111.554 45.0255H108.539C108.539 45.0255 105.683 49.9375 100.646 54.1651C100.646 54.1651 95.7269 58.2316 92.9503 58.3524C92.9503 58.3524 90.253 58.5537 89.9754 56.4601C89.9754 56.4601 89.8167 55.2119 90.5307 53.4404C90.5307 53.4404 92.1966 53.6014 94.4179 52.8767C94.4179 52.8767 96.5202 52.1922 98.2655 50.9844C98.2655 50.9844 100.13 49.696 100.804 48.327C100.804 48.327 101.597 46.7971 100.685 45.5087C100.685 45.5087 99.0192 43.8579 95.4096 45.3879C95.4096 45.3879 91.681 46.9581 88.9044 50.7025L88.1904 51.7896L88.1111 51.9104L86.1278 54.2456L84.1048 56.299C84.1048 56.299 81.6455 58.755 80.4159 58.0303C80.4159 58.0303 79.9399 57.7082 79.9399 56.9432C79.9399 56.9432 79.9399 56.1782 80.4952 55.2522L86.2468 45.1061H83.6685C83.6685 45.1061 82.2405 47.4815 80.5745 49.7362C80.5745 49.7362 77.3219 54.1248 73.7917 56.6614C73.7917 56.6614 71.372 58.5537 70.0234 57.9095C70.0234 57.9095 69.4284 57.6277 69.4681 56.8627C69.4681 56.8627 69.5077 56.0172 70.3011 54.8496L75.9336 45.1061L79.0672 45.0658L79.4639 44.6632H76.2906L79.6622 38.5835L76.8063 38.6238C76.8063 38.6238 74.823 42.0461 73.3157 44.0995C73.3157 44.0995 70.539 47.8036 68.2384 48.8102C68.2384 48.8102 68.6351 48.2868 68.6747 47.4815L68.6351 46.8373C68.6351 46.8373 68.4764 45.9918 67.6831 45.5892L66.9691 45.3879L65.6205 45.5087C65.6205 45.5087 64.0338 45.871 62.5662 47.1594L63.7958 45.0658H60.9399C60.9399 45.0658 58.3616 49.7362 54.99 53.7222C54.99 53.7222 50.5871 58.8758 48.1675 58.2719C48.1675 58.2719 47.4535 57.9095 47.4138 57.0237C47.4138 57.0237 47.4138 56.138 48.1675 54.8898L53.919 45.0255L51.0631 45.0658L50.1508 46.6763L49.5558 47.8439C49.5558 47.8439 49.6748 47.4815 49.5558 46.7165C49.5558 46.7165 49.3178 44.9047 47.6121 44.5424L46.2635 44.4216C46.2635 44.4216 42.8522 44.3813 38.965 47.8439C38.965 47.8439 36.3073 50.2596 34.2844 53.9235C34.2844 53.9235 30.2385 57.7485 25.9545 58.594C25.9545 58.594 22.1466 59.3992 20.5203 57.6679C20.5203 57.6679 18.7353 55.8159 18.7353 52.5949C18.7353 52.5949 18.775 48.7699 21.4723 43.5761C21.4723 43.5761 24.3282 39.3083 26.0735 37.3757C26.0735 37.3757 30.5161 32.4234 35.1174 31.1753C35.1174 31.1753 38.8856 30.1687 40.9879 31.9C40.9879 31.9 42.7729 33.3897 42.9316 36.4094L43.9629 34.6378C43.9629 34.6378 45.2718 32.5442 46.4222 31.3363C46.4222 31.3363 45.3512 31.8195 44.0422 31.9805C44.0422 31.9805 42.4159 32.1818 41.6226 31.6987C41.6226 31.6987 39.8555 30.5658 36.9978 30.5588L36.9978 30.5587ZM46.6849 44.7865C47.8471 44.7924 48.4451 45.3476 48.4451 45.3476C49.8334 46.636 48.7228 49.0518 48.7228 49.0518C46.5808 53.5612 43.4472 56.299 43.4472 56.299L41.5432 57.6679C38.5683 59.1576 37.299 58.1108 37.299 58.1108C36.2677 57.225 36.704 55.2119 36.704 55.2119C36.9817 53.843 38.0923 51.8701 38.0923 51.8701L40.2343 48.6894C42.1779 46.5152 44.3992 45.3879 44.3992 45.3879C45.3127 44.9312 46.0762 44.7833 46.6849 44.7865ZM97.7115 45.1413C97.7514 45.1408 97.7908 45.1425 97.8292 45.1463C97.8292 45.1463 98.4639 45.2268 98.7415 45.5489C98.7415 45.5489 99.0192 45.9516 98.9399 46.7568C98.9399 46.7568 98.7415 48.8907 96.4012 50.9038C96.4012 50.9038 93.7436 53.1988 90.6497 53.1183L91.2447 51.8701C91.2447 51.8701 92.5933 49.2128 94.5766 47.1594C94.5766 47.1594 96.4749 45.1567 97.7115 45.1413Z" fill="#3C3C3B"/>
<path d="M85.6518 40.6365C85.6518 40.6365 85.6518 41.16 86.0484 41.5626C86.0484 41.5626 86.4054 41.9249 86.9607 41.9249C86.9607 41.9249 87.4764 41.9249 87.8334 41.5626C87.8334 41.5626 88.1904 41.16 88.1904 40.6365L87.8334 39.7105C87.8334 39.7105 87.4367 39.3481 86.9607 39.3481C86.9607 39.3481 86.4054 39.3481 86.0484 39.7105C86.0484 39.7105 85.6518 40.0729 85.6518 40.6365Z" fill="#3C3C3B"/>
</g>
</svg>
