<svg width="107" height="72" viewBox="0 0 107 72" fill="none" xmlns="http://www.w3.org/2000/svg">
<g opacity="0.5">
<path fill-rule="evenodd" clip-rule="evenodd" d="M69.2379 41.6031C68.0033 42.9399 66.4177 43.6189 64.5262 43.6189C62.6338 43.6189 61.0483 42.9399 59.8144 41.6031C58.6359 40.3298 57.9588 38.2937 57.9588 36.0189C57.9588 33.7985 58.6434 31.7903 59.8346 30.5079C61.0812 29.1711 62.6593 28.4891 64.5247 28.4838C66.3931 28.4891 67.9711 29.1711 69.2169 30.5079C70.4097 31.7903 71.0928 33.7985 71.0928 36.0189C71.0928 38.2937 70.4164 40.3298 69.2379 41.6031V41.6031ZM52.6716 36.0189C52.6716 36.1216 52.6761 36.2228 52.6791 36.324C50.786 34.5847 48.0489 33.9374 46.3766 33.5998C43.2826 32.9413 40.9188 32.3386 40.9188 30.1151C40.9188 28.5465 42.3106 27.4053 44.9841 27.6009C47.4271 27.7799 48.456 29.2874 48.7381 30.742C48.7785 30.9806 48.8877 31.1544 49.1571 31.1566L53.5508 31.1944C53.5718 31.1944 53.5897 31.1921 53.6084 31.1906C52.9889 32.649 52.6716 34.2728 52.6716 36.0189V36.0189ZM45.1988 44.177C43.0738 44.177 40.7325 43.415 40.193 40.4665C40.1474 40.1848 40.0157 40.0685 39.8017 40.0625L35.5539 40.0051V32.4262C36.1121 34.6474 37.961 36.185 41.9597 37.0936C44.6362 37.7401 49.2791 38.1509 49.2791 40.9242C49.2791 42.8576 47.8686 44.2223 45.1988 44.177V44.177ZM24.0413 43.6219C20.6143 43.6219 17.4746 40.8993 17.4746 36.0219C17.4746 32.1951 19.8286 28.4868 24.0637 28.4868C25.8985 28.4868 30.5503 29.1212 30.5503 36.0219C30.5503 42.9407 25.6934 43.6219 24.0405 43.6219H24.0413ZM76.2535 34.1602C77.2285 35.4728 78.9884 36.4448 81.8474 37.0943C84.5232 37.7408 89.1668 38.1517 89.1668 40.9249C89.1668 42.8584 87.7556 44.2231 85.0866 44.1778C82.9623 44.1778 80.6195 43.4157 80.0808 40.4673C80.0359 40.1856 79.9042 40.0692 79.6895 40.0632L75.7537 40.0103C76.1689 38.774 76.3807 37.435 76.3807 36.0196C76.3805 35.3976 76.338 34.7764 76.2535 34.1602V34.1602ZM84.7963 48.0371C89.5095 48.0371 95.0645 46.266 94.6298 40.5216C94.1494 35.4222 88.8922 34.1308 86.2644 33.6006C83.1696 32.942 80.8059 32.3393 80.8059 30.1159C80.8059 28.5473 82.1976 27.4061 84.8719 27.6017C87.3149 27.7807 88.3437 29.2881 88.6258 30.7427C88.6662 30.9814 88.7762 31.1551 89.0449 31.1574L93.4386 31.1951C93.7731 31.1974 93.8771 31.0222 93.8352 30.782C92.9747 25.4666 88.5749 23.9629 84.5262 23.9629C80.4834 23.9629 75.6122 25.1094 75.2666 30.1854C75.2546 30.3817 75.2501 30.5751 75.2501 30.7646C74.6066 29.4143 73.6788 28.1742 72.4831 27.076C70.2757 25.0671 67.5237 23.9909 64.5224 23.9644H64.4229C62.9893 23.9644 61.5863 24.231 60.2522 24.7597C58.8961 25.3011 57.6483 26.0859 56.5693 27.076C55.4372 28.1153 54.543 29.2813 53.904 30.5479C52.9522 25.4251 48.6258 23.9629 44.6377 23.9629C40.9263 23.9629 36.5161 24.9319 35.5539 29.0231V24.9621C35.5537 24.8581 35.5126 24.7584 35.4397 24.6849C35.3667 24.6114 35.2679 24.5701 35.1648 24.5701H31.027C30.9239 24.5703 30.8251 24.6118 30.7523 24.6854C30.6795 24.7591 30.6386 24.8588 30.6386 24.9629V26.058C30.6386 26.2422 30.5167 26.3064 30.3678 26.1992C28.8959 25.1215 26.7185 23.9652 24.0982 23.9652C22.6256 23.9652 21.2196 24.2265 19.9184 24.7416C18.6165 25.2582 17.3789 26.0444 16.243 27.0791C14.95 28.2663 13.9653 29.6197 13.3196 31.1015C12.6739 32.5833 12.3461 34.2388 12.3461 36.0211C12.3461 37.6849 12.6365 39.2453 13.2081 40.6553C13.7798 42.0654 14.65 43.3697 15.7956 44.5327C16.9404 45.6958 18.2214 46.5794 19.6004 47.161C20.9795 47.7403 22.4991 48.034 24.1199 48.034C26.9049 48.034 28.9947 46.837 30.364 45.7487C30.5152 45.6324 30.6386 45.6951 30.6386 45.8854V47.0356C30.6386 47.2516 30.8137 47.4283 31.0277 47.4283H35.1655C35.2685 47.4279 35.3672 47.3864 35.44 47.3128C35.5127 47.2392 35.5537 47.1396 35.5539 47.0356V43.1612C37.5046 47.7909 42.4752 48.0363 44.9085 48.0363C48.976 48.0363 53.6668 46.7146 54.5976 42.6605C55.0451 43.3315 55.5555 43.9574 56.1218 44.5297C58.3396 46.7826 61.2458 47.994 64.5299 48.0303H64.6646C66.2239 48.0303 67.7287 47.7282 69.1369 47.1308C70.5586 46.524 71.8478 45.6401 72.9305 44.5297C73.7405 43.7147 74.4323 42.7881 74.9852 41.7776C76.46 47.7463 82.1407 48.0363 84.7963 48.0363V48.0371Z" fill="#3C3C3B"/>
</g>
</svg>
