<svg width="147" height="99" viewBox="0 0 147 99" fill="none" xmlns="http://www.w3.org/2000/svg">
<g opacity="0.5">
<path d="M101.203 56.7319L97.696 50.5172C99.2493 49.7658 100.238 48.1817 100.24 46.442C100.24 43.9414 98.2254 41.9068 95.7498 41.9068H88.2502V56.7313H91.5853V50.9772H94.2397L97.4863 56.7319H101.203ZM91.5306 48.1155V44.7757H95.1249L95.1111 44.7814C96.2052 44.8407 96.9023 45.4813 96.9023 46.4489C96.9023 47.4058 96.1555 48.0764 95.0422 48.1163H91.5306V48.1155ZM74.63 56.7319V41.9068H85.5946V44.7354H78.0552V47.7013H84.6657V50.593H78.0552V53.7554H85.9676V56.7319H74.63ZM58.9916 56.7319L55.485 50.5172C57.038 49.7658 58.0271 48.1814 58.0285 46.442C58.0285 43.9414 56.0144 41.9068 53.539 41.9068H46.0389V56.7313H49.3743V50.9772H52.0296L55.2755 56.7319H58.9916ZM49.3187 48.1155V44.7757H52.9136L52.8995 44.7814C53.9936 44.8407 54.6913 45.4813 54.6913 46.4489C54.6913 47.4058 53.9442 48.0764 52.8306 48.1163H49.3187V48.1155ZM37.151 57.0972C41.1635 57.0972 43.5598 54.7666 43.5598 50.8634V41.9176H40.1349V50.6321C40.1349 52.7426 39.0472 53.9531 37.1512 53.9531H37.1493C35.2533 53.9531 34.1662 52.7428 34.1662 50.6321V41.9176H30.7398V50.864C30.7398 54.7669 33.1362 57.0975 37.1493 57.0975H37.151V57.0972ZM26.2603 48.5211C28.2368 49.2019 29.2002 50.9005 29.2002 52.5383C29.2002 54.8459 27.3454 56.7244 25.0631 56.7319H16.9615V41.9056H24.4233C26.3656 41.9239 27.9315 43.5186 27.9338 45.4811C27.9363 46.719 27.3027 47.8696 26.2603 48.5205V48.5211ZM20.3238 53.9656H24.0684C25.2455 53.9656 25.8613 53.0789 25.8613 52.202C25.8613 51.4958 25.3054 50.5015 24.0684 50.5015H20.3238V53.9656ZM23.0657 47.7361C23.9281 47.7361 24.6046 47.0632 24.6046 46.2041C24.6046 45.3735 23.8987 44.6721 23.0652 44.6721H20.3238V47.7361H23.0657ZM69.8512 48.5182C71.8276 49.1985 72.791 50.8977 72.791 52.5355C72.791 54.8433 70.9363 56.721 68.654 56.729L60.5527 56.7284V41.9028L68.0133 41.9025C69.9562 41.921 71.5221 43.5161 71.5244 45.4788C71.5267 46.7167 70.8933 47.867 69.8509 48.5177L69.8512 48.5182ZM63.9147 53.9628H67.659C68.8361 53.9628 69.4519 53.076 69.4519 52.1992C69.4519 51.4932 68.8954 50.4986 67.659 50.4986H63.9147V53.9628ZM66.6558 47.7333C67.5192 47.7333 68.1957 47.0604 68.1957 46.2013C68.1957 45.3707 67.4899 44.6693 66.6558 44.6693H63.9147V47.7333H66.6558ZM115.716 56.7319L112.21 50.5172C113.763 49.7658 114.752 48.1814 114.753 46.442C114.753 43.9414 112.739 41.9068 110.264 41.9068H102.764V56.7313H106.099V50.9772H108.754L112 56.7319H115.717H115.716ZM106.044 48.1155V44.7757H109.638L109.624 44.7814C110.718 44.8407 111.416 45.4813 111.416 46.4489C111.416 47.4058 110.669 48.0764 109.555 48.1163H106.044V48.1155ZM120.59 56.7319V50.6909L114.768 41.9068H119.045L122.396 47.0036L125.762 41.9068H130.039L124.203 50.6909V56.7319H120.59Z" fill="#3C3C3B"/>
</g>
</svg>
