<svg width="161" height="106" viewBox="0 0 161 106" fill="none" xmlns="http://www.w3.org/2000/svg">
<g opacity="0.5">
<path d="M25.2295 55.0245C25.8483 55.6356 25.8483 56.5523 25.2295 57.1635L24.688 57.6983C24.0692 58.3094 23.1409 58.3094 22.5221 57.6983L19.0411 54.2605C18.4222 53.6493 18.4222 52.7326 19.0411 52.1215L19.5825 51.5867C20.2014 50.9755 21.1297 50.9755 21.7485 51.5867L25.2295 55.0245ZM24.8427 48.4545C24.2239 47.8434 23.2956 47.8434 22.6768 48.4545L22.1353 48.9893C21.5164 49.6004 21.5164 50.5172 22.1353 51.1283L25.6163 54.5661C26.2351 55.1772 27.1634 55.1772 27.7822 54.5661L28.3237 54.0313C28.9426 53.4202 28.9426 52.5034 28.3237 51.8923L24.8427 48.4545ZM34.1254 51.5103C33.5065 50.8991 32.5783 50.8991 31.9594 51.5103L31.4179 52.0451C30.7991 52.6562 30.7991 53.573 31.4179 54.1841L34.8989 57.6219C35.5178 58.233 36.446 58.233 37.0649 57.6219L37.6064 57.0871C38.2252 56.4759 38.2252 55.5592 37.6064 54.9481L34.1254 51.5103ZM37.297 48.3781C36.6781 47.767 35.7498 47.767 35.131 48.3781L34.5895 48.9129C33.9707 49.524 33.9707 50.4408 34.5895 51.0519L38.0705 54.4897C38.6894 55.1008 39.6176 55.1008 40.2365 54.4897L40.778 53.9549C41.3968 53.3438 41.3968 52.427 40.778 51.8159L37.297 48.3781ZM31.4953 45.0168C32.1141 44.4056 32.1141 43.4889 31.4953 42.8777L30.9538 42.343C30.335 41.7318 29.4067 41.7318 28.7878 42.343L25.3068 45.7807C24.688 46.3919 24.688 47.3086 25.3068 47.9198L25.8483 48.4545C26.4672 49.0657 27.3954 49.0657 28.0143 48.4545L31.4953 45.0168ZM34.5895 48.0725C35.2084 47.4614 35.2084 46.5447 34.5895 45.9335L34.048 45.3987C33.4292 44.7876 32.5009 44.7876 31.8821 45.3987L28.4011 48.8365C27.7822 49.4476 27.7822 50.3644 28.4011 50.9755L28.9426 51.5103C29.5614 52.1215 30.4897 52.1215 31.1085 51.5103L34.5895 48.0725ZM31.4953 57.0871C32.1141 56.4759 32.1141 55.5592 31.4953 54.9481L30.9538 54.4133C30.335 53.8021 29.4067 53.8021 28.7878 54.4133L25.3068 57.851C24.688 58.4622 24.688 59.3789 25.3068 59.9901L25.8483 60.5249C26.4672 61.136 27.3954 61.136 28.0143 60.5249L31.4953 57.0871ZM34.5895 60.1429C35.2084 59.5317 35.2084 58.615 34.5895 58.0038L34.048 57.4691C33.4292 56.8579 32.5009 56.8579 31.8821 57.4691L28.4784 60.9832C27.8596 61.5944 27.8596 62.5111 28.4784 63.1223L29.0199 63.657C29.6388 64.2682 30.567 64.2682 31.1859 63.657L34.5895 60.1429ZM59.9621 57.1635C60.0395 57.3163 60.5036 58.0038 60.5036 58.0038C60.2715 59.0734 59.5753 60.5249 59.5753 60.5249L59.498 60.6013C56.9453 61.5944 52.9228 62.4347 48.6682 60.754C46.1155 59.7609 44.2589 57.7747 43.5627 55.1772C42.7892 52.5034 43.3307 49.6004 45.0325 47.3086C46.889 44.864 49.8285 43.4889 53.851 43.2597C55.3981 43.1833 58.4924 43.5653 60.1942 44.5584H60.3489C60.3489 44.5584 60.4263 48.7601 60.3489 48.9129L60.2715 49.1421L59.0339 49.2185L58.9565 48.7601C58.7244 47.5378 58.1829 44.3292 53.619 44.5584C51.6851 44.6348 50.0606 45.6279 48.9003 47.1558C47.4305 49.0657 47.0437 51.5867 47.6626 54.4897C48.2814 57.2399 50.4474 58.997 52.0719 59.6845C52.7681 59.9137 54.934 60.4485 56.5585 59.6845C57.9509 58.997 59.3433 57.9274 59.9621 57.1635V57.1635ZM75.5879 61.5944V47.1558C75.5879 46.6974 75.5879 45.9335 75.1238 45.3987C75.0464 45.3223 74.3502 44.7876 74.3502 44.7876V44.1764L78.2954 43.4125L78.6821 43.6417V59.1498C78.7595 60.6013 79.7651 60.754 79.7651 60.754V61.6708L75.5879 61.5944ZM92.9929 60.6013C92.2967 60.4485 91.9099 59.8373 91.9099 58.8442V49.6768L91.6005 49.524L87.6554 50.288V50.8991C87.6554 50.8991 88.3516 51.4339 88.4289 51.5103C88.8931 52.0451 88.8931 52.809 88.8931 53.2674V58.6914C87.578 59.6845 86.4177 59.9901 85.5668 59.6081C84.9479 59.3025 84.5612 58.5386 84.5612 57.4691V49.6768L84.2517 49.524L80.3066 50.288V50.8991C80.3066 50.8991 81.0028 51.4339 81.0802 51.5103C81.6217 52.0451 81.6217 52.809 81.5443 53.2674V57.9274C81.5443 58.8442 81.6217 59.1498 81.699 59.5317C81.9311 60.5249 82.5499 61.2124 83.4008 61.518C84.7932 62.0528 86.8045 61.518 88.8931 60.1429V61.4416H93.225V60.6013H92.9929ZM112.641 60.6013C111.945 60.4485 111.636 59.8373 111.558 58.8442V53.2674C111.558 51.9687 110.862 49.524 108.309 49.524C106.375 49.524 105.138 50.67 104.442 51.2811C104.055 50.4408 103.204 49.524 101.657 49.524C100.419 49.524 99.3361 49.9824 98.2531 50.8991V49.7532L97.8663 49.524L93.9212 50.288V50.8991C93.9212 50.8991 94.6174 51.4339 94.6947 51.5103C95.1589 52.0451 95.1589 52.809 95.1589 53.2674V61.4416H99.4908V60.6013L99.2587 60.5249C98.5625 60.3721 98.2531 59.8373 98.2531 58.7678V52.1979C99.0267 51.5867 99.8002 51.4339 100.574 51.5103C101.193 51.5867 101.889 52.0451 101.889 54.3369V61.3652H106.143V60.5249L105.911 60.4485C105.215 60.2957 104.906 59.7609 104.828 58.6914V53.1146C104.828 52.9618 104.828 52.5034 104.751 52.1979C105.525 51.5103 106.298 51.4339 107.072 51.5103C107.69 51.5867 108.387 52.0451 108.387 54.3369V61.3652H112.641V60.5249V60.6013ZM74.1955 55.5592C74.1955 53.8021 73.5767 52.1979 72.4937 51.1283C71.3334 49.9824 69.7089 49.3713 67.6977 49.3713C63.9846 49.3713 61.1998 52.0451 61.1998 55.5592C61.1998 59.3025 63.7525 61.7472 67.6977 61.7472C69.5542 61.7472 71.256 61.136 72.4164 59.9901C73.5767 58.7678 74.1955 57.2399 74.1955 55.5592V55.5592ZM67.6977 60.3721C65.2996 60.3721 64.6034 58.5386 64.6034 55.4828C64.6034 53.2674 65.2996 50.5936 67.6977 50.5936C70.0957 50.5936 70.7919 53.2674 70.7919 55.4828C70.7919 58.5386 70.0957 60.3721 67.6977 60.3721V60.3721ZM127.184 45.7807C127.184 44.9404 127.88 44.1764 128.809 44.1764C129.659 44.1764 130.433 44.864 130.433 45.7807C130.433 46.6974 129.737 47.385 128.809 47.385C127.88 47.385 127.184 46.621 127.184 45.7807ZM127.339 61.4416V53.191C127.339 52.7326 127.339 51.9687 126.875 51.4339C126.797 51.3575 126.101 50.8227 126.101 50.8227V50.2116L130.046 49.4476L130.433 49.6768V58.8442C130.433 59.8373 130.82 60.4485 131.439 60.6013L131.671 60.6776V61.518L127.339 61.4416ZM125.095 52.3506C124.245 50.8991 123.162 49.9824 121.847 49.6768C119.99 49.2185 118.133 50.0588 116.973 50.67V43.5653L116.586 43.3361L112.641 44.1V44.7112C112.641 44.7112 113.337 45.2459 113.415 45.3223C113.879 45.8571 113.879 46.5447 113.879 47.0794V60.6013L114.034 60.6776C116.277 61.8236 119.216 61.9764 121.382 61.136C123.78 60.1429 124.863 58.4622 125.25 57.2399C126.024 55.33 125.714 53.4202 125.095 52.3506V52.3506ZM121.847 58.7678C121.15 59.9137 119.758 60.6013 118.675 60.2957C117.592 59.9901 116.973 58.8442 116.973 57.0871V52.1215C116.973 52.1215 117.05 52.1215 117.128 52.0451C117.824 51.7395 119.062 51.0519 120.686 51.8923C121.537 52.3506 122.233 53.191 122.543 54.2605C122.929 55.712 122.697 57.3163 121.847 58.7678ZM142.346 60.2193L142.114 60.1429C141.959 60.1429 141.65 59.6845 141.65 58.997V53.573C141.65 51.9687 141.108 50.7464 140.18 50.1352C139.329 49.524 138.169 49.4476 136.776 49.906C135.152 50.4408 132.754 52.5034 132.367 52.9618L132.29 53.0382V53.191C132.29 53.3438 132.522 53.573 132.599 53.7257L132.676 53.8021H135.384V53.0382C135.384 51.9687 136.08 51.4339 136.699 51.3575C137.318 51.2811 137.704 51.2811 138.014 51.5103C138.401 51.8159 138.633 52.5798 138.633 53.8021V54.4897L132.986 56.9343L132.908 57.0107V57.0871C132.367 58.615 132.522 59.8373 133.218 60.6776C134.378 61.9764 137.24 62.1291 141.417 61.2124C141.727 61.136 142.423 61.0596 142.423 61.0596C142.346 60.9832 142.346 60.2193 142.346 60.2193V60.2193ZM138.71 55.712V59.9137C137.782 60.5249 136.853 60.6013 136.157 60.0665C135.461 59.4553 135.306 58.3858 135.771 57.3163L138.71 55.712Z" fill="#3C3C3B"/>
</g>
</svg>
