<svg width="135" height="90" viewBox="0 0 135 90" fill="none" xmlns="http://www.w3.org/2000/svg">
<g opacity="0.5">
<path d="M29.9266 33.071C30.1159 32.7098 30.2571 32.3223 30.5001 31.9906C30.9171 32.6944 31.24 33.4475 31.6209 34.1699C31.7216 34.3921 31.8278 34.6121 31.9416 34.8277C32.0434 35.0488 32.1507 35.2677 32.2656 35.4823C32.9935 37.03 33.8079 38.535 34.5368 40.0816C34.6562 40.295 34.7612 40.5161 34.8565 40.7405C35.6391 42.3068 36.4206 43.8731 37.1966 45.4416C37.2951 45.6266 37.3772 45.8193 37.4659 46.0086C37.5195 46.1104 37.5731 46.2122 37.6279 46.314C38.4554 48.0336 39.343 49.7225 40.1618 51.4464C40.2351 51.592 40.3052 51.7386 40.3785 51.8853C41.0965 53.2535 41.7784 54.7147 42.9846 55.7294C43.6458 56.2887 44.4984 56.5164 45.2876 56.8119C45.2952 56.8743 45.3128 57.0002 45.3215 57.0626C45.2952 57.1239 45.2438 57.2454 45.2186 57.3067C40.2658 57.2957 35.3129 57.3187 30.3611 57.2957L30.3545 56.7878C31.0923 56.605 31.8639 56.3062 32.293 55.6385C32.5327 55.1066 32.5174 54.5287 32.3773 53.9748C32.3357 53.8314 32.3029 53.6859 32.2678 53.5425C32.1682 53.2469 32.0664 52.9514 31.9657 52.6559C31.9077 52.5169 31.853 52.3779 31.7961 52.2399C31.7282 52.0561 31.6527 51.8766 31.5706 51.6981C31.5093 51.5471 31.4469 51.396 31.3856 51.245C28.6131 51.2516 25.8395 51.2373 23.067 51.2516C22.9696 52.275 22.998 53.3159 23.1841 54.3284C23.3614 55.2938 23.9032 56.2132 24.7427 56.7441C24.7482 56.9301 24.7493 57.1184 24.7493 57.3056C21.6955 57.299 18.6417 57.3132 15.5879 57.299C15.5846 57.1271 15.5813 56.9553 15.5769 56.7846C16.7492 56.408 17.7036 55.5816 18.5246 54.6929C19.6531 53.4155 20.5812 51.9707 21.3978 50.4788C21.5641 50.1942 21.7064 49.8954 21.875 49.6119C21.9275 49.4992 21.9801 49.3864 22.0348 49.2759C22.7178 47.934 23.3844 46.5833 24.0269 45.2227C24.109 45.0804 24.178 44.9316 24.2382 44.7794C24.2907 44.6766 24.3443 44.5759 24.4001 44.4752C24.4888 44.2858 24.5698 44.0921 24.665 43.906C25.2222 42.737 25.8121 41.5844 26.3736 40.4176C26.4678 40.2326 26.551 40.0422 26.6385 39.855C26.7524 39.6372 26.8552 39.4128 26.9548 39.1873C27.8611 37.343 28.7652 35.4954 29.6562 33.6434C29.7471 33.453 29.8368 33.2614 29.9266 33.071ZM26.5444 41.4454C26.4918 41.579 26.4338 41.7103 26.3769 41.8427C25.6359 43.2668 24.9299 44.7116 24.3312 46.2024C24.2644 46.3863 24.1977 46.569 24.1265 46.7507C24.074 46.9018 24.0192 47.0528 23.9678 47.205C23.5869 48.3105 23.2914 49.4499 23.1436 50.6112H31.0397C30.5756 49.5769 30.0667 48.5622 29.5851 47.5344C29.4975 47.3462 29.4209 47.1524 29.3257 46.9686C28.5496 45.3267 27.7484 43.698 26.9756 42.0562C26.9483 42.0026 26.8946 41.8953 26.8673 41.8406C26.8136 41.7026 26.7556 41.5647 26.7009 41.4268C26.6615 41.4312 26.5838 41.441 26.5444 41.4454ZM101.55 32.5565C101.89 32.4328 102.223 32.284 102.58 32.2095C102.583 33.7124 102.566 35.2141 102.59 36.7169C104.124 35.132 105.805 33.5745 107.893 32.7656C108.03 32.7119 108.169 32.6627 108.309 32.6091C108.421 32.5795 108.533 32.5489 108.647 32.5171C108.788 32.4777 108.933 32.4394 109.076 32.3967C109.26 32.3704 109.449 32.3464 109.631 32.2949C110.651 32.1537 111.682 32.1362 112.701 32.2993C112.846 32.3409 112.993 32.3715 113.144 32.4022C113.285 32.4547 113.428 32.5029 113.573 32.5532C113.751 32.6156 113.926 32.6933 114.097 32.7776C114.843 33.1804 115.425 33.8437 115.799 34.599C115.862 34.7828 115.938 34.9624 116.019 35.1408C116.051 35.2513 116.085 35.3608 116.121 35.4713C116.151 35.583 116.184 35.6957 116.219 35.8074C116.38 36.5363 116.493 37.2762 116.504 38.0249C116.591 38.3741 116.55 38.7364 116.558 39.0921C116.561 43.7615 116.552 48.432 116.563 53.1014C116.577 53.5808 116.547 54.0679 116.651 54.5396C116.702 55.1438 116.849 55.8159 117.353 56.2077C117.944 56.6521 118.715 56.6904 119.423 56.7758C119.416 56.9444 119.418 57.114 119.398 57.2826C118.08 57.3351 116.757 57.2891 115.438 57.3045C112.501 57.3012 109.564 57.311 106.629 57.3001C106.474 57.1742 106.558 56.9553 106.53 56.7856C107.264 56.7331 108.11 56.4792 108.411 55.7327C108.46 55.5893 108.509 55.4448 108.564 55.3025C108.586 55.1154 108.607 54.9271 108.661 54.7476C108.749 53.5107 108.714 52.2706 108.723 51.0326C108.715 47.4907 108.742 43.9487 108.705 40.4067C108.674 39.8671 108.727 39.3198 108.623 38.7856C108.603 38.5602 108.585 38.3347 108.558 38.1092C108.516 37.9603 108.487 37.8071 108.462 37.655C108.409 37.516 108.36 37.3759 108.313 37.2358C107.965 36.3831 107.021 35.8873 106.13 35.8686C104.765 35.8544 103.522 36.6239 102.596 37.5652C102.555 42.0507 102.591 46.5417 102.579 51.0283C102.578 52.0911 102.577 53.1528 102.612 54.2145C102.674 54.5002 102.691 54.7925 102.712 55.0836C102.769 55.262 102.819 55.4426 102.877 55.6221C103.123 56.4233 104.028 56.6466 104.765 56.7167C104.765 56.8831 104.766 57.0494 104.769 57.2158C100.163 57.2213 95.5573 57.2169 90.9514 57.218C90.9514 57.0505 90.9514 56.8831 90.9547 56.7156C92.0186 56.6401 93.2992 56.6762 94.0479 55.7765C94.7835 54.7552 94.6532 53.421 94.7682 52.2356C94.8032 49.1719 94.7769 46.1082 94.7846 43.0446C94.7988 42.1054 94.6992 41.1718 94.6839 40.2337L94.6226 40.2425C94.5799 39.1337 94.2329 37.9341 93.3277 37.2215C92.5878 36.602 91.595 36.4827 90.6778 36.3371C90.6625 36.1784 90.6482 36.0186 90.634 35.8599C91.5753 35.6519 92.5079 35.398 93.4481 35.1824C93.6221 35.1265 93.7995 35.0784 93.9724 35.016C94.0337 35.005 94.1541 34.9821 94.2143 34.9711C94.3861 34.9142 94.5624 34.8649 94.7364 34.8113C96.5183 34.3078 98.2685 33.6992 100.018 33.0929C100.123 33.0534 100.229 33.0151 100.337 32.979C100.633 32.8761 100.927 32.77 101.223 32.6671C101.33 32.6288 101.439 32.5915 101.55 32.5565ZM74.6163 32.551C75.9253 32.2544 77.2738 32.3584 78.6026 32.3901L78.5928 32.4613C78.8303 32.469 79.0689 32.4832 79.3064 32.5084C79.487 32.5664 79.6764 32.5915 79.8657 32.6178C80.0474 32.6671 80.2324 32.7054 80.4163 32.7557C80.5575 32.794 80.7042 32.8291 80.8465 32.8728C80.9056 32.8871 81.0227 32.9166 81.0818 32.9309C81.1902 32.9681 81.2996 33.0042 81.4102 33.0403C81.5459 33.0939 81.686 33.1454 81.8239 33.1979C83.4439 33.8021 84.916 34.7785 86.1595 35.9748C87.7017 37.528 88.8477 39.4894 89.3862 41.614C89.4234 41.7617 89.4552 41.9095 89.4935 42.0573C89.5931 42.5816 89.696 43.1102 89.6774 43.6477L89.7485 43.6411C89.7321 44.277 89.8251 44.9261 89.6927 45.5522C89.6653 45.8784 89.6752 46.2111 89.5898 46.5296C89.5613 46.7135 89.5373 46.8996 89.4968 47.0824C88.8313 50.2052 86.9016 52.9799 84.3699 54.8888C83.1571 55.7896 81.8173 56.5197 80.3966 57.033C80.2883 57.0669 80.181 57.1009 80.0737 57.1326C79.8209 57.2158 79.5669 57.2946 79.3108 57.3614C78.9507 57.4632 78.5764 57.5059 78.2184 57.6142C78.0039 57.6394 77.7894 57.6602 77.577 57.6876C77.1775 57.7806 76.7638 57.7521 76.3588 57.7806C76.2154 57.7948 76.0731 57.8134 75.9319 57.8309C75.3562 57.7095 74.7531 57.8266 74.1795 57.6821C73.9935 57.6591 73.8074 57.6405 73.6224 57.6197C73.4462 57.5507 73.2579 57.5321 73.074 57.5048C72.9252 57.4599 72.7741 57.4282 72.6253 57.3986C70.6583 56.8688 68.8195 55.8695 67.3265 54.4816C65.8861 53.1419 64.7762 51.4486 64.1096 49.5988C64.0713 49.4915 64.0341 49.3853 63.998 49.2781C63.9618 49.1642 63.9246 49.0504 63.8885 48.9377C63.848 48.7811 63.8217 48.6202 63.7976 48.4615L63.7364 48.455C63.721 48.3247 63.7057 48.1934 63.6893 48.0631C63.559 47.5771 63.489 47.0714 63.489 46.5679L63.4189 46.6106C63.3992 45.874 63.4025 45.1363 63.4146 44.3996L63.4857 44.4182C63.4912 44.1249 63.5087 43.8305 63.5207 43.5371L63.5908 43.5295C63.5984 43.293 63.6083 43.0533 63.6805 42.8268C63.7101 42.679 63.7385 42.5312 63.7856 42.3878C63.8228 42.2444 63.86 42.1 63.8994 41.9566C63.9312 41.8427 63.964 41.73 63.998 41.6173C64.0352 41.51 64.0746 41.4016 64.114 41.2944C65.457 37.54 68.6049 34.5639 72.3242 33.199C72.4622 33.1443 72.599 33.0907 72.738 33.0348C72.9252 32.979 73.1112 32.9199 73.3006 32.8663C73.4122 32.8313 73.525 32.7973 73.6388 32.7645C73.9595 32.6704 74.2868 32.6014 74.6163 32.551ZM69.3646 36.3667C69.323 36.5112 69.2836 36.6567 69.242 36.8012C69.1172 37.5236 69.1905 38.2668 69.3657 38.9739C69.7838 40.7241 70.5029 42.3813 71.1936 44.0373C71.3435 44.3602 71.488 44.6864 71.6237 45.0159C72.3494 46.6106 73.1572 48.1649 73.9759 49.7126C74.0515 49.8549 74.127 49.9972 74.2036 50.1395C74.5451 50.7678 74.9041 51.3862 75.2861 51.9904C76.1694 53.3312 77.1053 54.7202 78.4899 55.5915C79.5549 56.2821 80.9833 56.2209 82.0735 55.6232C82.9863 55.0902 83.7405 54.197 83.9309 53.1375C84.0743 52.2487 83.885 51.3545 83.6453 50.4996C83.2611 49.1402 82.716 47.8344 82.1884 46.5264C82.0483 46.2472 81.9421 45.9539 81.8086 45.6726C81.223 44.3252 80.5455 43.0205 79.8855 41.7092C79.764 41.4991 79.6567 41.2801 79.5527 41.0612C79.4312 40.8423 79.3152 40.6223 79.1959 40.4034C78.6464 39.3439 78.0356 38.3172 77.3702 37.3266C76.4945 36.046 75.4996 34.7183 74.0427 34.0703C72.1962 33.3687 70.0322 34.5738 69.3646 36.3667ZM35.6905 32.7119C40.6937 32.7174 45.698 32.724 50.7024 32.7076L50.6969 32.7995L50.791 32.8017L50.7866 33.2351C50.1879 33.4037 49.5564 33.5985 49.1163 34.0637C48.6895 34.484 48.5734 35.1375 48.7015 35.7077C48.9522 37.1832 49.68 38.5131 50.2908 39.8627C50.3685 40.0061 50.4561 40.1484 50.4999 40.3082C50.5535 40.4122 50.6082 40.515 50.6619 40.6179C51.4193 42.2302 52.2139 43.8261 52.9801 45.434C53.0064 45.4909 53.0589 45.6036 53.0852 45.6595C53.141 45.8083 53.2144 45.9484 53.2899 46.0885C53.6599 46.9084 54.0769 47.7052 54.4556 48.5206C54.8431 47.7194 55.2108 46.9095 55.595 46.1082C55.6465 45.99 55.7001 45.8729 55.7494 45.7536C55.9212 45.4055 56.081 45.0498 56.2419 44.6974C56.9939 42.9373 57.6627 41.1094 57.8476 39.1928C57.9877 38.1913 57.9888 37.1548 57.8487 36.1532C57.7754 35.0729 57.2489 34.0221 56.3656 33.3807C56.1336 33.2691 56.1927 32.9954 56.1675 32.7875L56.2868 32.8236L56.2649 32.7109C59.3012 32.7218 62.3375 32.7163 65.3738 32.713C65.3771 32.8915 65.3924 33.071 65.3705 33.2483C64.681 33.4825 64.0428 33.8547 63.4912 34.3308C62.3857 35.2371 61.5155 36.3908 60.7351 37.5794C59.9032 38.871 59.1534 40.2151 58.4792 41.5943C58.3883 41.7847 58.303 41.9774 58.2143 42.1678C57.5149 43.628 56.7881 45.0739 56.0821 46.5307C55.9891 46.7168 55.9081 46.9084 55.8139 47.0944C55.7395 47.2389 55.6717 47.3867 55.6049 47.5355C54.6012 49.6053 53.5811 51.6675 52.5883 53.7428C52.029 54.9249 51.4291 56.0873 50.8676 57.2683C50.7921 57.4139 50.721 57.5628 50.675 57.7204C50.5962 57.8189 50.5141 57.9152 50.4287 58.0094C50.27 57.7335 50.1365 57.4446 50.0062 57.1545C49.3725 55.8783 48.7343 54.6042 48.105 53.3257C48.0502 53.2108 47.9944 53.0959 47.9397 52.981C47.2074 51.4453 46.4237 49.9359 45.6882 48.4024C45.5919 48.2164 45.5021 48.027 45.4135 47.8387C45.2887 47.5903 45.1694 47.3396 45.0413 47.0944C44.3561 45.6168 43.5735 44.1851 42.8894 42.7074C42.8358 42.6002 42.7821 42.494 42.7274 42.3889C42.7001 42.3342 42.6464 42.2226 42.6201 42.1678C42.5709 42.0551 42.5205 41.9434 42.4691 41.8329C42.3815 41.6884 42.3038 41.5396 42.2469 41.3808C42.1933 41.2801 42.1407 41.1794 42.0871 41.0798C41.4599 39.7861 40.8108 38.5022 40.1672 37.2171C40.1103 37.1164 40.0534 37.0168 39.9976 36.9161C39.3737 35.7209 38.5977 34.5092 37.3827 33.8459C36.842 33.5558 36.2476 33.3906 35.6566 33.2373C35.6675 33.0622 35.6774 32.8871 35.6905 32.7119Z" fill="#3C3C3B"/>
</g>
</svg>
